<svg xmlns="http://www.w3.org/2000/svg" viewBox="0 0 360 225" class="map" data-size="small" role="img" aria-label="யோவான் 1 · John 1"><title>யோவான் 1 · John 1</title><rect class="water" width="360" height="225"/><path class="land" fill-rule="evenodd" d="M63.5 225L68.7 219.2L87.4 188.4L98.9 163.7L102.5 149.2L104 148.4L113.1 119.8L121.2 81.3L126.3 46.1L128 45.2L134.5 47.2L138.9 41.8L140.3 36.6L138.7 34.3L140.2 24.2L141.7 15.1L143.3 13.3L142.5 10.6L147.9 5.4L150.2 1.4L149.5 0.5L151 1.4L151.6 0L360 0L360 225Z"/><path class="lake" fill-rule="evenodd" d="M203.1 40.7L203.4 54.4L202.7 57.1L198.8 61.6L196.2 61.3L195.1 56.4L193.1 54.8L189.5 47.9L190.3 43.8L193.8 40L197.9 37.7L200.4 37.9L203.1 40.7ZM197.3 190.1L197.5 193.1L193.7 218.7L195.1 225L176 225L175.5 221.9L178 215L177.2 208.5L185 193.1L188.4 189.7L194.2 188.4L197.3 190.1Z"/><path class="river" d="M198.7 37.4L198.2 55.1L196.2 61.3M183.4 225L185.3 205L190.6 192.5L194.2 188.4M198.1 0L197 24.6L198.7 37.4M196.2 61.3L194.1 66.5L196.5 82.6L194.2 83.6L194.9 87.2L193.4 88.1L196.5 91.7L194.4 93.7L195.7 96.4L192.6 102.7L194.9 108.2L193.4 107.3L195.7 123.7L194.2 125.5L195.7 125.5L194.2 136.5L191.5 142.4L192.6 145.6L190.1 149.5L192.7 164.6L190.3 167.9L194.2 188.4"/><g class="places"><a href="/place/jerusalem" class="place" data-place="jerusalem"><title>Jerusalem</title><circle cx="157.7" cy="187" r="4.5"/><text class="ta" lang="ta" x="166.2" y="192.3" text-anchor="start">எருசலேம்</text><text class="en" lang="en" x="166.2" y="192.3" text-anchor="start">Jerusalem</text></a><a href="/place/jordan" class="place" data-place="jordan"><title>Jordan</title><circle cx="194.1" cy="189" r="4.5"/><text class="ta" lang="ta" x="194.1" y="209.5" text-anchor="middle">யோர்தான்</text><text class="en" lang="en" x="194.1" y="209.5" text-anchor="middle">Jordan</text></a><a href="/place/galilee-1" class="place" data-place="galilee-1"><title>Galilee</title><circle cx="190.6" cy="56" r="4.5"/><text class="ta" lang="ta" x="199.1" y="61.4" text-anchor="start">கலிலேயா</text><text class="en" lang="en" x="199.1" y="61.4" text-anchor="start">Galilee</text></a><a href="/place/nazareth" class="place" data-place="nazareth"><title>Nazareth</title><circle cx="164.8" cy="63.7" r="4.5"/><text class="ta" lang="ta" x="156.3" y="69.1" text-anchor="end">நாசரேத்து</text><text class="en" lang="en" x="156.3" y="69.1" text-anchor="end">Nazareth</text></a><a href="/place/bethsaida-1" class="place" data-place="bethsaida-1"><title>Bethsaida</title><circle cx="202.3" cy="36" r="4.5"/><text class="ta" lang="ta" x="210.8" y="41.3" text-anchor="start">பெத்சாயிதா</text><text class="en" lang="en" x="210.8" y="41.3" text-anchor="start">Bethsaida</text></a><a href="/place/bethany-2" class="place" data-place="bethany-2"><title>Bethany</title><circle cx="193.2" cy="178.9" r="4.5"/><text class="ta" lang="ta" x="193.2" y="169.4" text-anchor="middle">பெத்தானியா</text><text class="en" lang="en" x="193.2" y="169.4" text-anchor="middle">Bethany</text></a></g><text class="credit" x="354" y="219" text-anchor="end">Natural Earth · OpenBible.info</text></svg>